<svg width="286" height="39" viewBox="0 0 286 39" fill="none" xmlns="http://www.w3.org/2000/svg">
<path d="M19.8998 5.45158C20.1005 4.42687 20.9857 3.74297 22.0102 3.74193L37.3096 3.72647C38.4707 3.7253 39.4994 4.74877 39.5041 5.90987C39.5091 7.13928 38.4885 8.09651 37.3274 8.09769L23.7355 8.11142L16.6137 37.078C16.3441 37.9662 15.5956 38.65 14.7079 38.7192C13.8206 38.8567 12.9307 38.3795 12.5176 37.5603L5.42496 23.4292L2.41973 23.4323C1.19031 23.4335 0.230203 22.4783 0.225192 21.2489C0.220459 20.0878 1.17249 19.0623 2.40191 19.0611L6.77316 19.0566C7.59277 19.0558 8.34603 19.5332 8.69059 20.2841L13.7175 30.3192L19.8998 5.45158ZM27.0613 19.7191C27.8773 18.8304 29.3116 18.829 30.1348 19.716L33.0149 22.5135L35.8038 19.7103C36.6198 18.8216 38.0541 18.8201 38.8773 19.7072C39.7686 20.5259 39.7744 21.9602 38.8898 22.7807L36.1009 25.5839L38.913 28.4496C39.8042 29.2683 39.81 30.7027 38.9255 31.5232C38.1095 32.4119 36.6752 32.4133 35.8519 31.5263L33.0402 28.7288L30.183 31.532C29.367 32.4207 27.9327 32.4222 27.1094 31.5351C26.2182 30.7164 26.2123 29.2821 27.0969 28.4616L29.8856 25.5901L27.0738 22.7927C26.1826 21.974 26.1767 20.5396 27.0613 19.7191Z" fill="white"/>
<path d="M49.9473 33.9618C49.6909 33.9621 49.5274 33.904 49.457 33.7875C49.3865 33.6477 49.3853 33.3446 49.4533 32.8783L52.7813 8.57085C52.8269 8.31436 52.8729 8.16278 52.9193 8.11611C52.989 8.04609 53.1404 8.01097 53.3735 8.01074L61.9761 8.00204C62.2559 8.00176 62.4544 8.0715 62.5715 8.21126C62.6885 8.32771 62.7708 8.50248 62.8184 8.73556L65.5282 21.4968C65.552 21.6367 65.599 21.7066 65.6689 21.7065C65.7621 21.6831 65.8433 21.6014 65.9127 21.4615L71.8758 8.76138C72.0602 8.2483 72.3389 7.99157 72.7119 7.9912L81.8041 7.98201C82.1538 7.98166 82.2944 8.15636 82.2259 8.50613L78.8645 33.1983C78.8192 33.5247 78.7268 33.7346 78.5873 33.828C78.471 33.898 78.2381 33.9333 77.8884 33.9336L72.6429 33.9389C72.3398 33.9392 72.1064 33.8812 71.9427 33.7648C71.8023 33.625 71.7546 33.357 71.7996 32.9606L74.0416 16.7673C74.0876 16.6041 74.0639 16.5225 73.9707 16.5226C73.9007 16.5226 73.8196 16.6276 73.7272 16.8375L65.8568 33.4912C65.7876 33.6777 65.6832 33.8061 65.5437 33.8761C65.4273 33.9229 65.2758 33.9464 65.0893 33.9465L61.7672 33.9499C61.5807 33.9501 61.4289 33.9036 61.312 33.8105C61.195 33.7173 61.101 33.5193 61.0298 33.2163L57.7463 16.9586C57.6987 16.7255 57.6166 16.609 57.5001 16.6092C57.4068 16.6092 57.3489 16.7026 57.3264 16.8891L55.0508 33.4321C55.0283 33.642 54.959 33.7819 54.8427 33.852C54.7497 33.922 54.5983 33.9571 54.3885 33.9574L49.9473 33.9618Z" fill="white"/>
<path d="M81.1359 33.9303C80.9028 33.9306 80.7741 33.8258 80.75 33.616C80.7258 33.4062 80.8293 33.068 81.0606 32.6015L92.9574 8.56523C93.0729 8.30866 93.2354 8.14531 93.4449 8.07516C93.6545 8.00501 93.8991 7.96979 94.1789 7.96951L100.264 7.96336C100.567 7.96305 100.765 8.06776 100.859 8.27748C100.977 8.48718 101.059 8.72023 101.107 8.97663L106.346 32.9956C106.393 33.2054 106.382 33.4152 106.313 33.6251C106.267 33.8117 106.116 33.9051 105.86 33.9053L99.8449 33.9114C99.5185 33.9118 99.3077 33.6788 99.2126 33.2127L98.2501 28.7375C98.226 28.5277 98.0856 28.4229 97.8292 28.4232L89.926 28.4312C89.6695 28.4314 89.4719 28.5715 89.3332 28.8514L86.9746 33.6097C86.9052 33.7263 86.8239 33.808 86.7308 33.8547C86.6611 33.9014 86.498 33.9249 86.2415 33.9252L81.1359 33.9303ZM96.9333 23.1087C97.3063 23.1083 97.4336 22.8867 97.3152 22.4439L95.7835 15.5563C95.7592 15.3232 95.6888 15.2067 95.5722 15.2069C95.4556 15.207 95.3395 15.312 95.2238 15.5219L91.7906 22.5893C91.7215 22.7992 91.6987 22.9391 91.7223 23.009C91.7692 23.0789 91.8859 23.1138 92.0725 23.1136L96.9333 23.1087Z" fill="white"/>
<path d="M106.699 8.4814C106.745 8.27154 106.803 8.1316 106.872 8.06159C106.965 7.99156 107.152 7.9564 107.431 7.95611L128.239 7.93509C128.518 7.93481 128.682 7.98127 128.729 8.07447C128.776 8.14437 128.788 8.28423 128.765 8.49408L128.187 12.5512C128.165 12.7144 128.107 12.831 128.014 12.901C127.921 12.9478 127.77 12.9712 127.56 12.9714L121.195 12.9779C120.985 12.9781 120.846 13.0248 120.776 13.1182C120.706 13.1882 120.649 13.3281 120.603 13.538L117.886 33.2637C117.863 33.5202 117.794 33.6951 117.678 33.7885C117.585 33.8585 117.457 33.8936 117.294 33.8938L111.489 33.8997C111.209 33.8999 111.022 33.8418 110.929 33.7254C110.835 33.5856 110.811 33.3641 110.856 33.061L113.573 13.4052C113.596 13.1254 113.478 12.9857 113.222 12.9859L106.683 12.9925C106.263 12.993 106.087 12.8183 106.156 12.4685L106.699 8.4814Z" fill="white"/>
<path d="M130.946 8.49187C130.992 8.25869 131.038 8.10711 131.084 8.03713C131.154 7.96711 131.294 7.932 131.503 7.93179L149.898 7.91321C150.294 7.9128 150.447 8.19241 150.356 8.75202L149.846 12.3894C149.824 12.6459 149.754 12.8208 149.638 12.9142C149.545 13.0075 149.347 13.0543 149.044 13.0546L137.924 13.0659C137.714 13.0661 137.563 13.1012 137.47 13.1712C137.4 13.2413 137.342 13.4045 137.297 13.661L136.719 17.823C136.697 18.0328 136.709 18.1727 136.756 18.2426C136.826 18.2892 136.943 18.3123 137.106 18.3122L144.205 18.305C144.438 18.3048 144.578 18.3513 144.625 18.4445C144.672 18.5144 144.673 18.6542 144.627 18.8641L144.084 22.9212C144.062 23.2009 143.887 23.341 143.561 23.3413L136.357 23.3486C136.101 23.3489 135.938 23.5355 135.87 23.9086L135.258 28.3154C135.236 28.5952 135.318 28.735 135.505 28.7348L147.395 28.7228C147.628 28.7226 147.768 28.7691 147.815 28.8623C147.885 28.9321 147.897 29.0953 147.852 29.3518L147.343 33.3389C147.321 33.5487 147.263 33.6887 147.17 33.7587C147.101 33.8287 146.926 33.8638 146.646 33.8641L128.357 33.8826C127.774 33.8832 127.516 33.5571 127.584 32.9042L130.946 8.49187Z" fill="white"/>
<path d="M150.251 33.8605C149.995 33.8607 149.831 33.8026 149.761 33.6861C149.69 33.5463 149.689 33.2433 149.757 32.7769L153.085 8.4695C153.131 8.21301 153.177 8.06143 153.223 8.01476C153.293 7.94474 153.444 7.90962 153.677 7.90939L162.28 7.90069C162.56 7.90041 162.758 7.97015 162.875 8.10991C162.992 8.22636 163.075 8.40113 163.122 8.63421L165.832 21.3955C165.856 21.5353 165.903 21.6052 165.973 21.6052C166.066 21.5817 166.147 21.5001 166.217 21.3601L172.18 8.66003C172.364 8.14695 172.643 7.89022 173.016 7.88985L182.108 7.88066C182.458 7.88031 182.598 8.05501 182.53 8.40478L179.168 33.0969C179.123 33.4233 179.031 33.6332 178.891 33.7266C178.775 33.7967 178.542 33.8319 178.192 33.8323L172.947 33.8376C172.644 33.8379 172.41 33.7798 172.247 33.6634C172.106 33.5237 172.058 33.2556 172.103 32.8593L174.345 16.6659C174.391 16.5027 174.368 16.4211 174.274 16.4212C174.205 16.4213 174.123 16.5263 174.031 16.7362L166.161 33.3898C166.091 33.5764 165.987 33.7047 165.847 33.7748C165.731 33.8215 165.58 33.845 165.393 33.8452L162.071 33.8485C161.884 33.8487 161.733 33.8023 161.616 33.7091C161.499 33.616 161.405 33.4179 161.334 33.1149L158.05 16.8573C158.003 16.6242 157.92 16.5077 157.804 16.5078C157.711 16.5079 157.653 16.6012 157.63 16.7877L155.355 33.3308C155.332 33.5406 155.263 33.6806 155.146 33.7506C155.054 33.8207 154.902 33.8558 154.692 33.856L150.251 33.8605Z" fill="white"/>
<path d="M181.44 33.829C181.207 33.8292 181.078 33.7244 181.054 33.5146C181.03 33.3048 181.133 32.9667 181.364 32.5002L193.261 8.46388C193.377 8.20731 193.539 8.04396 193.749 7.97381C193.958 7.90365 194.203 7.86844 194.483 7.86816L200.567 7.86201C200.871 7.8617 201.069 7.96641 201.163 8.17613C201.281 8.38583 201.363 8.61888 201.411 8.87528L206.649 32.8943C206.697 33.1041 206.686 33.3139 206.617 33.5238C206.571 33.7103 206.42 33.8037 206.164 33.804L200.149 33.8101C199.822 33.8104 199.612 33.5775 199.516 33.1113L198.554 28.6361C198.53 28.4263 198.389 28.3216 198.133 28.3218L190.23 28.3298C189.973 28.3301 189.776 28.4702 189.637 28.7501L187.278 33.5083C187.209 33.625 187.128 33.7067 187.035 33.7534C186.965 33.8001 186.802 33.8236 186.545 33.8238L181.44 33.829ZM197.237 23.0073C197.61 23.0069 197.737 22.7853 197.619 22.3425L196.087 15.455C196.063 15.2219 195.993 15.1054 195.876 15.1055C195.759 15.1056 195.643 15.2107 195.528 15.4206L192.094 22.488C192.025 22.6979 192.003 22.8378 192.026 22.9077C192.073 22.9776 192.19 23.0124 192.376 23.0122L197.237 23.0073ZM204.608 3.87136C204.585 4.12783 204.516 4.29109 204.4 4.36115C204.284 4.40789 204.062 4.43143 203.736 4.43176L191.776 4.44384C191.496 4.44413 191.298 4.36273 191.181 4.19966C191.087 4.01325 191.051 3.80346 191.073 3.57031L191.412 1.01716C191.435 0.807322 191.469 0.679064 191.516 0.63239C191.585 0.585694 191.69 0.562275 191.83 0.562134L204.454 0.549378C204.618 0.549213 204.746 0.630679 204.84 0.793776C204.957 0.956851 205.005 1.12 204.982 1.28321L204.608 3.87136Z" fill="white"/>
<path d="M207.003 8.38005C207.049 8.17019 207.106 8.03025 207.176 7.96024C207.269 7.89021 207.455 7.85505 207.735 7.85476L228.542 7.83374C228.822 7.83346 228.986 7.87992 229.033 7.97312C229.079 8.04302 229.092 8.18288 229.069 8.39273L228.491 12.4498C228.469 12.613 228.411 12.7297 228.318 12.7997C228.225 12.8464 228.073 12.8699 227.863 12.8701L221.499 12.8765C221.289 12.8767 221.149 12.9235 221.08 13.0168C221.01 13.0868 220.953 13.2268 220.907 13.4366L218.19 33.1624C218.167 33.4189 218.098 33.5938 217.982 33.6871C217.889 33.7572 217.761 33.7923 217.598 33.7924L211.793 33.7983C211.513 33.7986 211.326 33.7405 211.232 33.624C211.139 33.4842 211.114 33.2628 211.16 32.9597L213.877 13.3039C213.899 13.0241 213.782 12.8843 213.526 12.8846L206.986 12.8912C206.567 12.8916 206.391 12.7169 206.46 12.3672L207.003 8.38005Z" fill="white"/>
<path d="M237.787 7.8244C238.16 7.82402 238.313 8.11528 238.245 8.69818L234.917 33.0406C234.872 33.367 234.78 33.5769 234.64 33.6703C234.524 33.7404 234.279 33.7756 233.906 33.776L228.556 33.7814C228.206 33.7817 227.996 33.6887 227.925 33.5022C227.878 33.3158 227.865 33.0827 227.887 32.8029L231.25 8.39052C231.296 8.15734 231.353 8.00575 231.423 7.93574C231.493 7.86573 231.621 7.83063 231.807 7.83044L237.787 7.8244Z" fill="white"/>
<path d="M261.398 32.9089C261.61 33.4682 261.436 33.7481 260.877 33.7487L254.792 33.7549C254.326 33.7553 254.033 33.4992 253.914 32.9864L250.375 22.6389C250.305 22.4758 250.211 22.4642 250.095 22.6042C249.979 22.7209 249.828 22.8842 249.643 23.0943L246.404 26.5246C246.312 26.6179 246.219 26.7346 246.126 26.8746C246.057 27.0145 245.999 27.1661 245.953 27.3293L245.172 33.0302C245.15 33.31 245.069 33.5082 244.93 33.6249C244.79 33.7183 244.534 33.7652 244.161 33.7656L238.741 33.7711C238.461 33.7714 238.286 33.6783 238.215 33.4919C238.144 33.3054 238.12 33.0723 238.142 32.7925L241.505 8.38016C241.55 8.14698 241.608 7.99539 241.678 7.92538C241.747 7.85537 241.864 7.82028 242.027 7.82012L247.902 7.81418C248.112 7.81397 248.275 7.90705 248.393 8.09344C248.51 8.25652 248.546 8.45464 248.5 8.68782L247.21 18.2709C247.165 18.5274 247.176 18.6089 247.246 18.5156C247.339 18.399 247.455 18.259 247.594 18.0956L256.367 8.2952C256.576 8.08517 256.762 7.95676 256.925 7.90997C257.087 7.83987 257.355 7.80463 257.728 7.80425L263.114 7.79881C263.463 7.79845 263.662 7.86819 263.709 8.00803C263.78 8.14783 263.699 8.33442 263.467 8.56779L255.98 16.3037C255.84 16.467 255.724 16.6187 255.632 16.7587C255.562 16.8753 255.551 17.0502 255.599 17.2832L261.398 32.9089Z" fill="white"/>
<path d="M260.536 33.7491C260.303 33.7493 260.174 33.6445 260.15 33.4347C260.126 33.2249 260.23 32.8868 260.461 32.4203L272.358 8.38396C272.473 8.12739 272.636 7.96404 272.845 7.89389C273.055 7.82373 273.299 7.78852 273.579 7.78823L279.664 7.78209C279.967 7.78178 280.166 7.88649 280.26 8.09621C280.377 8.30591 280.46 8.53896 280.507 8.79536L285.746 32.8144C285.793 33.0241 285.782 33.234 285.713 33.4439C285.668 33.6304 285.516 33.7238 285.26 33.7241L279.245 33.7302C278.919 33.7305 278.708 33.4976 278.613 33.0314L277.65 28.5562C277.626 28.3464 277.486 28.2417 277.229 28.2419L269.326 28.2499C269.07 28.2502 268.872 28.3902 268.733 28.6701L266.375 33.4284C266.305 33.5451 266.224 33.6267 266.131 33.6735C266.061 33.7202 265.898 33.7436 265.642 33.7439L260.536 33.7491ZM276.334 22.9274C276.707 22.927 276.834 22.7054 276.715 22.2626L275.184 15.3751C275.159 15.142 275.089 15.0255 274.972 15.0256C274.856 15.0257 274.74 15.1307 274.624 15.3407L271.191 22.4081C271.122 22.6179 271.099 22.7578 271.123 22.8278C271.169 22.8977 271.286 22.9325 271.473 22.9323L276.334 22.9274Z" fill="white"/>
</svg>
