<svg width="15" height="21" viewBox="0 0 15 21" fill="none" xmlns="http://www.w3.org/2000/svg">
<path d="M10.625 15.6656H4.375C3.98438 14.4547 3.20312 13.361 2.42188 12.3063C2.22656 12.0328 2.03125 11.7594 1.83594 11.486C1.05469 10.3531 0.625 9.02502 0.625 7.54065C0.625 3.75159 3.67188 0.665649 7.5 0.665649C11.2891 0.665649 14.375 3.75159 14.375 7.57971C14.375 9.02502 13.9062 10.3531 13.125 11.486C12.9297 11.7594 12.7344 12.0328 12.5391 12.3063C11.7578 13.361 10.9766 14.4547 10.625 15.6656ZM7.5 20.6656C5.74219 20.6656 4.375 19.2985 4.375 17.5406V16.9156H10.625V17.5406C10.625 19.2985 9.21875 20.6656 7.5 20.6656ZM4.375 7.54065C4.375 5.8219 5.74219 4.41565 7.5 4.41565C7.8125 4.41565 8.125 4.14221 8.125 3.79065C8.125 3.47815 7.8125 3.16565 7.5 3.16565C5.07812 3.16565 3.125 5.15784 3.125 7.54065C3.125 7.89221 3.39844 8.16565 3.75 8.16565C4.0625 8.16565 4.375 7.89221 4.375 7.54065Z" fill="white"/>
</svg>
