<svg width="113" height="26" viewBox="0 0 113 26" fill="none" xmlns="http://www.w3.org/2000/svg">
<path d="M4.71031 0.395931L20.4755 0.380002C21.313 0.379156 22.055 1.1174 22.0584 1.95491L22.1227 17.72C22.1263 18.6067 21.3901 19.2972 20.5526 19.2981L20.5654 22.4511C21.403 22.4502 22.145 23.1885 22.1484 24.026C22.152 24.9128 21.4158 25.6032 20.5783 25.6041L4.81313 25.62C2.20202 25.6226 0.0749427 23.5063 0.0642997 20.8953L4.00902e-05 5.13022C-0.0106029 2.51914 2.09921 0.39857 4.71031 0.395931ZM4.78742 19.314C3.90063 19.3149 3.21392 20.0546 3.21733 20.8921C3.22095 21.7789 3.91349 22.4679 4.80028 22.467L17.4124 22.4542L17.3996 19.3012L4.78742 19.314ZM6.31575 7.48861C6.31755 7.932 6.66382 8.27651 7.10722 8.27606L16.5663 8.26651C16.9604 8.26611 17.3532 7.92085 17.3514 7.47746C17.3498 7.08333 16.954 6.6896 16.5599 6.69L7.10079 6.69956C6.6574 6.70001 6.31414 7.09448 6.31575 7.48861ZM7.11364 9.85257C6.67025 9.85302 6.32699 10.2475 6.3286 10.6416C6.33041 11.085 6.67667 11.4295 7.12007 11.4291L16.5792 11.4195C16.9733 11.4191 17.366 11.0739 17.3642 10.6305C17.3626 10.2363 16.9669 9.84261 16.5727 9.84301L7.11364 9.85257Z" fill="white"/>
<path d="M41.1021 8.16988C40.7814 7.86751 40.3262 7.5821 39.7365 7.31363C39.1637 7.04516 38.4232 6.91137 37.5152 6.91229C36.893 6.91292 36.3467 6.98914 35.8765 7.14096C35.4231 7.29277 35.0625 7.52015 34.7946 7.82311C34.5436 8.10924 34.4188 8.4541 34.4205 8.85768C34.4216 9.12674 34.4982 9.36209 34.6504 9.56372C34.8193 9.74853 35.0302 9.91648 35.283 10.0676C35.5358 10.2018 35.8054 10.3193 36.0917 10.4199L40.032 11.7276C41.3622 12.1466 42.3482 12.7006 42.99 13.3894C43.6318 14.0782 43.9549 14.9523 43.9592 16.0117C43.9651 17.4411 43.5916 18.6522 42.8389 19.6451C42.0862 20.6212 41.0634 21.3622 39.7706 21.8679C38.4778 22.3737 37.0327 22.6274 35.4351 22.6291C33.5517 22.631 31.9697 22.3215 30.6892 21.7006C29.4254 21.0628 28.497 20.2061 27.904 19.1305C27.8193 18.9624 27.7767 18.8279 27.7763 18.727C27.7758 18.6261 27.8511 18.5336 28.0021 18.4494L30.3421 17.0092C30.5603 16.8913 30.7451 16.8659 30.8968 16.933C31.0651 16.9833 31.2085 17.084 31.3268 17.2352C31.7154 17.6889 32.0869 18.0669 32.4413 18.3692C32.8125 18.6715 33.259 18.8981 33.781 19.0489C34.3197 19.1997 35.0179 19.2747 35.8755 19.2738C36.4304 19.2732 36.9431 19.2139 37.4135 19.0957C37.8838 18.9607 38.2612 18.7417 38.5459 18.4387C38.8473 18.1357 38.997 17.732 38.995 17.2275C38.9935 16.8575 38.8493 16.5466 38.5624 16.2946C38.2755 16.0427 37.8374 15.8245 37.248 15.6401L33.5605 14.4583C32.2977 14.0728 31.3283 13.4768 30.6524 12.6703C29.9932 11.8638 29.6615 10.9309 29.6572 9.87146C29.6532 8.89613 29.8598 8.01307 30.277 7.2223C30.711 6.4315 31.2968 5.74986 32.0344 5.17736C32.7888 4.60485 33.6446 4.16677 34.6019 3.86311C35.576 3.55944 36.6012 3.40706 37.6774 3.40597C38.7537 3.40488 39.7211 3.53843 40.5799 3.80662C41.4385 4.058 42.1882 4.39356 42.8289 4.81332C43.4865 5.23305 44.0013 5.69498 44.3733 6.19909C44.4916 6.35031 44.551 6.48478 44.5515 6.60249C44.5687 6.70337 44.5186 6.79591 44.4013 6.88011L41.81 8.54752C41.7093 8.61489 41.6 8.60659 41.4819 8.52263C41.3638 8.42185 41.2372 8.30427 41.1021 8.16988Z" fill="white"/>
<path d="M61.6253 21.745C61.7783 22.1484 61.653 22.3503 61.2494 22.3507L56.8604 22.3552C56.524 22.3555 56.3131 22.1707 56.2275 21.8009L53.6746 14.3371C53.6237 14.2194 53.5564 14.2111 53.4727 14.3121C53.389 14.3962 53.2802 14.5141 53.1463 14.6655L50.8105 17.1399C50.7435 17.2072 50.6766 17.2914 50.6097 17.3923C50.5597 17.4933 50.5181 17.6026 50.4849 17.7204L49.9215 21.8325C49.9055 22.0343 49.8473 22.1773 49.7467 22.2615C49.6461 22.3288 49.4612 22.3626 49.1922 22.3629L45.2824 22.3669C45.0806 22.3671 44.9542 22.2999 44.9032 22.1655C44.8522 22.031 44.8347 21.8628 44.8507 21.661L47.2762 4.0521C47.3091 3.8839 47.3507 3.77456 47.4009 3.72406C47.4512 3.67356 47.5352 3.64825 47.6529 3.64813L51.8906 3.64385C52.0419 3.64369 52.1599 3.71084 52.2445 3.84528C52.3291 3.96291 52.3549 4.10582 52.3219 4.27402L51.3916 11.1864C51.3587 11.3714 51.3674 11.4302 51.4175 11.3629C51.4845 11.2788 51.5681 11.1778 51.6685 11.06L57.9963 3.99082C58.147 3.83932 58.2812 3.7467 58.3987 3.71294C58.5162 3.66238 58.7095 3.63696 58.9786 3.63669L62.8631 3.63276C63.1154 3.63251 63.2585 3.68281 63.2925 3.78367C63.3434 3.88452 63.2851 4.01911 63.1176 4.18744L57.7171 9.76743C57.6167 9.88525 57.5331 9.99464 57.4662 10.0956C57.4161 10.1797 57.4082 10.3059 57.4425 10.474L61.6253 21.745Z" fill="white"/>
<path d="M70.1091 22.594C68.4611 22.5957 67.0556 22.286 65.8928 21.665C64.7299 21.0271 63.8349 20.12 63.2079 18.9435C62.5809 17.767 62.2641 16.3716 62.2576 14.7572C62.2563 14.4545 62.2634 14.135 62.2789 13.7987C62.2943 13.4624 62.3266 13.1344 62.3758 12.8149C62.6537 10.8639 63.2438 9.1901 64.1462 7.79345C65.0485 6.37999 66.2044 5.29418 67.6139 4.53603C69.0233 3.76107 70.6025 3.3727 72.3513 3.37093C73.9657 3.3693 75.3544 3.69581 76.5174 4.35046C77.6803 4.9883 78.5753 5.90388 79.2023 7.09719C79.8294 8.2905 80.1463 9.71114 80.153 11.3591C80.1542 11.645 80.147 11.9561 80.1316 12.2924C80.1161 12.6119 80.0838 12.9399 80.0347 13.2763C79.7734 15.1768 79.1916 16.8337 78.2893 18.2472C77.3869 19.6438 76.2393 20.7212 74.8467 21.4794C73.454 22.2207 71.8748 22.5922 70.1091 22.594ZM70.2208 19.0625C71.4988 19.0612 72.4974 18.5726 73.2165 17.5965C73.9524 16.6204 74.4673 15.0392 74.7611 12.8528C74.8264 12.3651 74.8666 11.9194 74.8818 11.5158C74.9137 11.0953 74.9289 10.7086 74.9275 10.3554C74.9225 9.12785 74.7087 8.24522 74.2861 7.70753C73.8634 7.15303 73.1896 6.87625 72.2647 6.87718C70.9867 6.87847 69.9714 7.39239 69.2189 8.41893C68.4831 9.44546 67.9601 11.0856 67.6498 13.3392C67.5844 13.8101 67.5358 14.2474 67.5038 14.651C67.4886 15.0378 67.4816 15.3994 67.483 15.7357C67.4878 16.9128 67.7099 17.7618 68.1492 18.2827C68.5886 18.8035 69.2791 19.0635 70.2208 19.0625Z" fill="white"/>
<path d="M83.0075 4.06644C83.0567 3.7637 83.1991 3.61221 83.4345 3.61197L87.7983 3.60757C88.0505 3.60731 88.1439 3.81742 88.0783 4.23789L86.1678 18.214C86.1184 18.4831 86.2031 18.6176 86.4217 18.6173L94.3169 18.6094C94.5859 18.6091 94.7044 18.8024 94.6724 19.1892L94.3052 21.939C94.2891 22.1071 94.2391 22.2165 94.1552 22.267C94.0881 22.3007 93.962 22.3177 93.7771 22.3179L81.1649 22.3306C80.7445 22.331 80.5586 22.0958 80.6071 21.6249L83.0075 4.06644Z" fill="white"/>
<path d="M94.494 22.3171C94.3258 22.3173 94.233 22.2417 94.2156 22.0904C94.1982 21.9391 94.2728 21.6952 94.4396 21.3587L103.021 4.021C103.104 3.83593 103.221 3.7181 103.373 3.6675C103.524 3.6169 103.7 3.5915 103.902 3.59129L108.291 3.58686C108.51 3.58664 108.653 3.66217 108.721 3.81344C108.805 3.9647 108.865 4.1328 108.899 4.31774L112.678 21.6429C112.712 21.7942 112.704 21.9456 112.655 22.097C112.622 22.2316 112.513 22.2989 112.328 22.2991L107.989 22.3035C107.754 22.3037 107.602 22.1357 107.533 21.7995L106.839 18.5715C106.821 18.4202 106.72 18.3446 106.535 18.3448L100.834 18.3505C100.649 18.3507 100.507 18.4518 100.407 18.6537L98.7055 22.0859C98.6554 22.17 98.5968 22.2289 98.5297 22.2626C98.4793 22.2963 98.3617 22.3132 98.1767 22.3134L94.494 22.3171ZM105.889 14.5114C106.158 14.5111 106.25 14.3512 106.164 14.0318L105.059 9.06377C105.042 8.89563 104.991 8.8116 104.907 8.81168C104.823 8.81177 104.739 8.88752 104.656 9.03895L102.179 14.1367C102.129 14.2881 102.113 14.389 102.13 14.4395C102.164 14.4899 102.248 14.515 102.383 14.5149L105.889 14.5114Z" fill="white"/>
</svg>
