<svg width="21" height="21" viewBox="0 0 21 21" fill="none" xmlns="http://www.w3.org/2000/svg">
<path d="M16.25 8.79065C16.25 10.5875 15.6641 12.2672 14.6875 13.5953L19.6094 18.5563C20.1172 19.025 20.1172 19.8453 19.6094 20.3141C19.1406 20.8219 18.3203 20.8219 17.8516 20.3141L12.8906 15.3531C11.5625 16.3688 9.88281 16.9156 8.125 16.9156C3.63281 16.9156 0 13.2828 0 8.79065C0 4.33752 3.63281 0.665649 8.125 0.665649C12.5781 0.665649 16.25 4.33752 16.25 8.79065ZM8.125 14.4156C11.2109 14.4156 13.75 11.9156 13.75 8.79065C13.75 5.70471 11.2109 3.16565 8.125 3.16565C5 3.16565 2.5 5.70471 2.5 8.79065C2.5 11.9156 5 14.4156 8.125 14.4156Z" fill="white"/>
</svg>
