<svg width="289" height="263" viewBox="0 0 289 263" fill="none" xmlns="http://www.w3.org/2000/svg">
<path d="M184.213 79.2411V183.395M184.213 79.2411L105.549 183.395M184.213 79.2411L80.0588 2.16565L2 105.488L105.549 183.395M184.213 79.2411H287.459V183.395H184.213M184.213 183.395H105.549M184.213 183.395V261H105.549V183.395M126.331 115.114C127.469 115.114 128.455 115.307 129.289 115.694C130.143 116.06 130.854 116.558 131.424 117.188C132.013 117.798 132.481 118.459 132.826 119.17C132.948 119.455 132.877 119.628 132.613 119.689L130.448 120.055C130.265 120.095 130.133 120.014 130.051 119.811C129.706 119.282 129.36 118.845 129.014 118.499C128.669 118.154 128.293 117.879 127.886 117.676C127.479 117.473 127.012 117.371 126.483 117.371C125.548 117.371 124.724 117.615 124.013 118.103C123.321 118.571 122.783 119.262 122.396 120.177C122.03 121.092 121.847 122.2 121.847 123.501C121.847 124.802 122.041 125.92 122.427 126.856C122.813 127.771 123.362 128.472 124.074 128.96C124.785 129.428 125.629 129.661 126.605 129.661C127.561 129.661 128.364 129.418 129.014 128.93C129.665 128.442 130.265 127.75 130.814 126.856C130.875 126.774 130.925 126.724 130.966 126.703C131.027 126.683 131.119 126.693 131.241 126.734L132.857 127.222C133.02 127.283 133.06 127.435 132.979 127.679C132.735 128.187 132.41 128.696 132.003 129.204C131.617 129.712 131.149 130.17 130.6 130.576C130.072 130.963 129.451 131.278 128.74 131.522C128.028 131.766 127.225 131.888 126.331 131.888C124.806 131.888 123.454 131.542 122.274 130.851C121.115 130.139 120.201 129.163 119.53 127.923C118.879 126.663 118.554 125.209 118.554 123.562C118.554 121.895 118.889 120.431 119.56 119.17C120.231 117.91 121.146 116.924 122.305 116.212C123.484 115.48 124.826 115.114 126.331 115.114ZM198.772 142.475C198.568 142.475 198.426 142.434 198.345 142.353C198.263 142.271 198.223 142.129 198.223 141.926V120.303C198.223 119.998 198.365 119.846 198.65 119.846H201.09C201.334 119.846 201.455 119.998 201.455 120.303V127.684C201.455 127.887 201.496 127.999 201.577 128.019C201.679 128.039 201.801 127.988 201.943 127.867C202.167 127.643 202.482 127.389 202.889 127.104C203.316 126.819 203.834 126.565 204.444 126.342C205.075 126.118 205.796 126.006 206.61 126.006C208.073 126.006 209.283 126.372 210.239 127.104C211.194 127.816 211.906 128.792 212.374 130.032C212.862 131.272 213.105 132.695 213.105 134.301C213.105 136.904 212.496 138.968 211.276 140.492C210.076 142.017 208.368 142.78 206.152 142.78C205.278 142.78 204.515 142.648 203.865 142.383C203.214 142.119 202.675 141.794 202.248 141.407C201.821 141.021 201.486 140.675 201.242 140.37C201.161 140.269 201.079 140.228 200.998 140.248C200.937 140.248 200.907 140.32 200.907 140.462L200.663 141.956C200.602 142.302 200.398 142.475 200.053 142.475H198.772ZM201.455 136.985C201.455 137.676 201.638 138.297 202.004 138.846C202.391 139.395 202.879 139.832 203.468 140.157C204.078 140.462 204.729 140.614 205.42 140.614C206.254 140.614 206.996 140.401 207.646 139.974C208.317 139.547 208.836 138.876 209.202 137.961C209.588 137.026 209.781 135.826 209.781 134.362C209.781 132.35 209.425 130.825 208.714 129.788C208.002 128.751 206.955 128.232 205.573 128.232C204.739 128.232 203.966 128.426 203.255 128.812C202.543 129.198 201.943 129.686 201.455 130.276V136.985ZM147.738 207.509C147.027 208.2 146.244 208.729 145.39 209.095C144.536 209.461 143.571 209.644 142.493 209.644C140.927 209.644 139.697 209.237 138.803 208.424C137.908 207.611 137.461 206.543 137.461 205.222C137.461 204.104 137.776 203.148 138.406 202.355C139.057 201.562 139.992 200.932 141.212 200.464C142.452 199.997 143.957 199.722 145.726 199.641L147.708 199.488C147.83 199.468 147.942 199.427 148.043 199.366C148.145 199.305 148.196 199.194 148.196 199.031V198.268C148.196 197.272 147.891 196.489 147.281 195.92C146.671 195.331 145.837 195.036 144.78 195.036C143.987 195.036 143.255 195.219 142.584 195.585C141.913 195.951 141.314 196.52 140.785 197.293C140.724 197.394 140.663 197.465 140.602 197.506C140.541 197.547 140.429 197.547 140.267 197.506L138.193 196.896C138.111 196.855 138.05 196.805 138.01 196.744C137.989 196.662 138.02 196.52 138.101 196.317C138.691 195.219 139.555 194.375 140.694 193.785C141.853 193.175 143.266 192.87 144.933 192.87C146.397 192.87 147.596 193.084 148.531 193.511C149.467 193.918 150.158 194.517 150.605 195.31C151.073 196.083 151.307 196.998 151.307 198.055V208.821C151.307 209.024 151.266 209.166 151.185 209.248C151.124 209.309 151.012 209.339 150.849 209.339H148.775C148.633 209.339 148.521 209.288 148.44 209.187C148.359 209.065 148.308 208.912 148.287 208.729L148.257 207.57C148.196 207.245 148.023 207.225 147.738 207.509ZM148.196 201.745C148.196 201.4 148.054 201.247 147.769 201.288L146.122 201.41C145.309 201.45 144.567 201.562 143.896 201.745C143.225 201.908 142.645 202.131 142.157 202.416C141.69 202.701 141.314 203.046 141.029 203.453C140.765 203.839 140.633 204.297 140.633 204.825C140.633 205.618 140.907 206.249 141.456 206.716C142.025 207.164 142.788 207.387 143.743 207.387C144.353 207.387 144.923 207.286 145.451 207.082C146 206.859 146.478 206.584 146.885 206.259C147.291 205.913 147.606 205.557 147.83 205.191C148.074 204.825 148.196 204.47 148.196 204.124V201.745Z" stroke="white" stroke-width="2.5717"/>
</svg>
