<svg width="13" height="19" viewBox="0 0 13 19" fill="none" xmlns="http://www.w3.org/2000/svg">
<path d="M3.75 3.44675C3.04688 3.44675 2.5 4.03268 2.5 4.69675C2.5 5.39987 1.91406 5.94675 1.25 5.94675C0.546875 5.94675 0 5.39987 0 4.69675C0 2.62643 1.67969 0.946747 3.75 0.946747H7.53906C10.2734 0.946747 12.5 3.17331 12.5 5.90768C12.5 7.978 11.2109 9.81393 9.33594 10.5561L6.875 11.4936V12.1967C6.875 12.8999 6.28906 13.4467 5.625 13.4467C4.92188 13.4467 4.375 12.8999 4.375 12.1967V11.4936C4.375 10.478 5 9.5405 5.9375 9.18893L8.39844 8.21237C9.375 7.86081 10 6.92331 10 5.90768C10 4.57956 8.86719 3.44675 7.53906 3.44675H3.75ZM5.625 18.4467C4.72656 18.4467 4.0625 17.7827 4.0625 16.8842C4.0625 16.0249 4.72656 15.3217 5.625 15.3217C6.48438 15.3217 7.1875 16.0249 7.1875 16.8842C7.1875 17.7827 6.48438 18.4467 5.625 18.4467Z" fill="white"/>
</svg>
