<svg width="23" height="21" viewBox="0 0 23 21" fill="none" xmlns="http://www.w3.org/2000/svg">
<path d="M11.2891 1.64221C11.4062 1.05627 11.9141 0.665649 12.5 0.665649H21.25C21.9141 0.665649 22.5 1.25159 22.5 1.91565C22.5 2.61877 21.9141 3.16565 21.25 3.16565H13.4766L9.33594 19.7281C9.17969 20.236 8.75 20.6266 8.24219 20.6656C7.73438 20.7438 7.22656 20.4703 6.99219 20.0016L2.96875 11.9156H1.25C0.546875 11.9156 0 11.3688 0 10.6656C0 10.0016 0.546875 9.41565 1.25 9.41565H3.75C4.21875 9.41565 4.64844 9.68909 4.84375 10.1188L7.69531 15.861L11.2891 1.64221ZM15.3516 9.80627C15.8203 9.29846 16.6406 9.29846 17.1094 9.80627L18.75 11.4078L20.3516 9.80627C20.8203 9.29846 21.6406 9.29846 22.1094 9.80627C22.6172 10.275 22.6172 11.0953 22.1094 11.5641L20.5078 13.1656L22.1094 14.8063C22.6172 15.275 22.6172 16.0953 22.1094 16.5641C21.6406 17.0719 20.8203 17.0719 20.3516 16.5641L18.75 14.9625L17.1094 16.5641C16.6406 17.0719 15.8203 17.0719 15.3516 16.5641C14.8438 16.0953 14.8438 15.275 15.3516 14.8063L16.9531 13.1656L15.3516 11.5641C14.8438 11.0953 14.8438 10.275 15.3516 9.80627Z" fill="white"/>
</svg>
